<?xml version="1.0" encoding="utf-8"?>
<!-- Svg Vector Icons : http://www.onlinewebfonts.com/icon -->
<!DOCTYPE svg PUBLIC "-//W3C//DTD SVG 1.1//EN" "http://www.w3.org/Graphics/SVG/1.1/DTD/svg11.dtd">
<svg version="1.1" xmlns="http://www.w3.org/2000/svg" xmlns:xlink="http://www.w3.org/1999/xlink" x="0px" y="0px" viewBox="0 0 1000 1000" enable-background="new 0 0 1000 1000" xml:space="preserve">
<metadata> Svg Vector Icons : http://www.onlinewebfonts.com/icon </metadata>
<g><path d="M833.3,371.7c0-37.5-26.9-68.8-62.4-75.7C754.3,242,722,195.2,679.8,160.5l41.9-69.8l60.7-35.9c11.5-6.8,15.3-21.6,8.5-33c-6.8-11.5-21.6-15.2-33-8.5l-71.2,42.1L640,133.1c-41.7-23.8-89.7-37.4-140-37.4c-124.7,0-234.9,82.9-270.9,200.3c-35.5,6.9-62.4,38.2-62.4,75.7c0,32.5,20.3,60.4,48.9,71.7L299.1,963c2.5,15.6,15.9,27,31.7,27h338.4c15.8,0,29.2-11.5,31.7-27l83.5-519.5C813,432.2,833.3,404.3,833.3,371.7z M500,160c89.1,0,168.6,54.7,202.1,134.6H297.9C331.4,214.7,410.9,160,500,160z M641.8,925.7H358.2l-76.6-476.9h32.1c17.7,0,32.1-14.4,32.1-32.1c0-17.7-14.4-32.1-32.1-32.1h-68.3c-0.6,0-1.2,0-1.9,0c-6.9-0.2-12.5-5.9-12.5-12.8c0-7.1,5.8-12.9,12.8-12.9h512.3c7.1,0,12.9,5.8,12.9,12.9c0,7-5.6,12.7-12.6,12.8c-0.4,0-0.7,0-1.1,0H439.2c-17.7,0-32.1,14.4-32.1,32.1s14.4,32.1,32.1,32.1h279.3L641.8,925.7z"/><path d="M659.8,507.5c-8.8-1.5-17,4.5-18.4,13.3l-50.9,316.5c-1.4,8.8,4.5,17,13.3,18.4c0.9,0.1,1.7,0.2,2.6,0.2c7.8,0,14.6-5.6,15.8-13.5l50.9-316.5C674.6,517.1,668.6,508.9,659.8,507.5z"/></g>
</svg>